<?xml version="1.0" standalone="no"?>
<!DOCTYPE svg PUBLIC "-//W3C//DTD SVG 1.1//EN" "http://www.w3.org/Graphics/SVG/1.1/DTD/svg11.dtd" >
<svg xmlns="http://www.w3.org/2000/svg" xmlns:xlink="http://www.w3.org/1999/xlink" version="1.1">
<metadata></metadata>
<defs>
<font id="sansationbold" horiz-adv-x="565" >
<font-face units-per-em="2048" ascent="1638" descent="-410" />
<missing-glyph horiz-adv-x="450" />
<glyph unicode="&#xfb01;" horiz-adv-x="1161" d="M1036 1050v-1050h-265v850h-381v-850h-265v1101q0 401 472 401q169 0 339 -70v-210q-154 70 -320 70q-226 0 -226 -183v-59h646z" />
<glyph unicode="&#xfb02;" horiz-adv-x="1191" d="M801 1274q-80 18 -165 18q-246 0 -246 -183v-59h235v-210h-235v-840h-265v1101q0 401 522 401q199 0 419 -70v-1432h-265v1274z" />
<glyph horiz-adv-x="0" />
<glyph unicode="&#xd;" horiz-adv-x="390" />
<glyph unicode=" "  horiz-adv-x="450" />
<glyph unicode="&#x09;" horiz-adv-x="450" />
<glyph unicode="&#xa0;" horiz-adv-x="450" />
<glyph unicode="!" d="M415 1430v-1060h-265v1060h265zM415 245v-245h-265v245h265z" />
<glyph unicode="&#x22;" horiz-adv-x="815" d="M715 1430l-30 -435h-185l-30 435h245zM345 1430l-30 -435h-185l-30 435h245z" />
<glyph unicode="#" horiz-adv-x="1893" d="M803 876l-90 -378h377l90 378h-377zM403 -5l89 349h-392l30 154h402l89 378h-401l30 154h412l100 395h180l-100 -395h378l102 400h180l-101 -400h392l-30 -154h-402l-89 -378h401l-30 -154h-412l-90 -349h-180l90 349h-378l-90 -349h-180z" />
<glyph unicode="$" horiz-adv-x="1025" d="M399 1231v199h255v-195q136 -12 261 -55v-220q-175 70 -380 70q-215 0 -215 -110q0 -105 125 -105h170q350 0 350 -315q0 -276 -311 -321v-179h-255v175q-148 12 -274 55v220q175 -70 404 -70q171 0 171 110q0 105 -115 105h-190q-320 0 -320 315q0 275 324 321z" />
<glyph unicode="%" horiz-adv-x="1502" d="M365 0h-265l1017 1430h265zM428 995q134 0 134 147q0 124 -134 124q-138 0 -138 -124q0 -147 138 -147zM100 1140q0 300 328 300q324 0 324 -300q0 -319 -324 -319q-328 0 -328 319zM1078 164q134 0 134 137q0 134 -134 134q-138 0 -138 -134q0 -137 138 -137zM750 299 q0 310 328 310q324 0 324 -310q0 -309 -324 -309q-328 0 -328 309z" />
<glyph unicode="&#x26;" horiz-adv-x="1335" d="M100 1035q0 395 510 395q185 0 360 -50v-210q-175 50 -347 50q-258 0 -258 -180q0 -210 205 -210h338v142h143l102 -142h182v-210h-162v-130q0 -493 -548 -493q-525 0 -525 417q0 227 183 313q-183 85 -183 308zM572 620q-207 0 -207 -201q0 -209 261 -209q282 0 282 282 v128h-336z" />
<glyph unicode="'" horiz-adv-x="445" d="M345 1430l-30 -435h-185l-30 435h245z" />
<glyph unicode="(" horiz-adv-x="640" d="M565 1430q-200 -452 -200 -905t200 -905h-265q-200 452 -200 905t200 905h265z" />
<glyph unicode=")" horiz-adv-x="640" d="M340 1430q200 -452 200 -905t-200 -905h-265q200 452 200 905t-200 905h265z" />
<glyph unicode="*" horiz-adv-x="810" d="M328 1430h156l-30 -232l209 101l48 -147l-228 -43l159 -170l-123 -92l-113 205l-113 -204l-124 89l161 171l-230 42l48 150l211 -103z" />
<glyph unicode="+" horiz-adv-x="950" d="M370 630v270h210v-270h270v-210h-270v-270h-210v270h-270v210h270z" />
<glyph unicode="," horiz-adv-x="465" d="M440 185l-150 -435h-265l150 435h265z" />
<glyph unicode="-" horiz-adv-x="700" d="M600 630v-210h-500v210h500z" />
<glyph unicode="." horiz-adv-x="465" d="M365 245v-245h-265v245h265z" />
<glyph unicode="/" horiz-adv-x="1060" d="M310 0h-285l725 1430h285z" />
<glyph unicode="0" horiz-adv-x="1445" d="M728 220q352 0 352 499q0 491 -352 491q-363 0 -363 -491q0 -499 363 -499zM90 713q0 727 638 727q627 0 627 -727q0 -723 -627 -723q-638 0 -638 723z" />
<glyph unicode="1" horiz-adv-x="690" d="M250 0v1211h-150v109l415 140v-1460h-265z" />
<glyph unicode="2" horiz-adv-x="1180" d="M100 0v200q715 497 715 800q0 210 -260 210q-220 0 -415 -110v240q195 100 415 100q525 0 525 -420q0 -370 -573 -790h573v-230h-980z" />
<glyph unicode="3" horiz-adv-x="1115" d="M100 1380q200 60 420 60q535 0 535 -390q0 -236 -188 -325q188 -85 188 -325q0 -410 -535 -410q-220 0 -420 60v240q200 -70 420 -70q270 0 270 210q0 180 -192 180h-348v230h345q195 0 195 180q0 190 -270 190q-220 0 -420 -70v240z" />
<glyph unicode="4" horiz-adv-x="1220" d="M1047 0h-265v310h-722v200l585 920h284l-566 -910h419v478h265v-478l148 -136v-74h-148v-310z" />
<glyph unicode="5" horiz-adv-x="1160" d="M175 1430h854v-210h-626l-24 -352q57 22 166 22q540 0 540 -440q0 -460 -560 -460q-200 0 -400 60v220q200 -70 410 -70q285 0 285 250q0 230 -275 230q-225 0 -420 -50z" />
<glyph unicode="6" horiz-adv-x="1250" d="M100 550q0 556 688 923l126 -207q-352 -161 -484 -389q121 43 246 43q524 0 524 -440q0 -490 -563 -490q-537 0 -537 560zM646 200q293 0 293 280q0 230 -272 230q-154 0 -294 -48q-18 -40 -18 -106q0 -356 291 -356z" />
<glyph unicode="7" horiz-adv-x="1170" d="M100 1430h1020v-210l-642 -1220h-291l652 1200h-739v230z" />
<glyph unicode="8" horiz-adv-x="1280" d="M80 424q0 223 212 331q-172 95 -172 323q0 366 520 366t520 -366q0 -228 -177 -323q217 -108 217 -331q0 -434 -550 -434q-570 0 -570 434zM895 1048q0 162 -253 162q-257 0 -257 -162q0 -188 260 -188q250 0 250 188zM935 418q0 212 -293 212q-297 0 -297 -212 q0 -198 310 -198q280 0 280 198z" />
<glyph unicode="9" horiz-adv-x="1265" d="M1200 883q0 -556 -688 -923l-126 207q342 161 484 399q-121 -53 -246 -53q-524 0 -524 450q0 480 563 480q537 0 537 -560zM654 1233q-293 0 -293 -270q0 -240 272 -240q154 0 294 48q18 40 18 106q0 356 -291 356z" />
<glyph unicode=":" horiz-adv-x="490" d="M390 1050v-245h-265v245h265zM390 245v-245h-265v245h265z" />
<glyph unicode=";" horiz-adv-x="615" d="M515 1050v-245h-265v245h265zM515 185l-150 -435h-265l150 435h265z" />
<glyph unicode="&#x3c;" horiz-adv-x="1100" d="M100 430v190l900 380v-250l-573 -229l573 -221v-250z" />
<glyph unicode="=" horiz-adv-x="950" d="M850 450v-210h-750v210h750zM850 810v-210h-750v210h750z" />
<glyph unicode="&#x3e;" horiz-adv-x="1100" d="M100 50v250l573 221l-573 229v250l900 -380v-190z" />
<glyph unicode="?" horiz-adv-x="1115" d="M515 245v-245h-265v245h265zM100 1380q210 50 400 50q515 0 515 -390q0 -440 -500 -440v-230h-265v440h265q255 0 255 230q0 180 -270 180q-190 0 -400 -50v210z" />
<glyph unicode="@" horiz-adv-x="2130" d="M1540 118q0 -58 80 -58q145 0 145 480q0 690 -686 690q-714 0 -714 -690q0 -710 645 -710v-210q-910 0 -910 920q0 900 964 900q966 0 966 -900q0 -690 -447 -690q-281 0 -291 244q-137 -94 -302 -94q-385 0 -385 327q0 313 456 313q107 0 214 -20v79q0 141 -203 141 q-172 0 -382 -50v210q210 50 382 50q468 0 468 -346v-586zM1061 460q-191 0 -191 -130q0 -140 160 -140q132 0 245 82v168q-100 20 -214 20z" />
<glyph unicode="A" horiz-adv-x="1562" d="M297 0h-272l607 1430h285l620 -1430h-285l-163 390h-475l91 230h288l-225 537z" />
<glyph unicode="B" horiz-adv-x="1321" d="M150 0v1430h670q408 0 408 -333q0 -244 -266 -349q284 -53 284 -325q0 -423 -447 -423h-649zM788 230q176 0 176 180q0 223 -263 223h-80v171q330 55 330 276q0 120 -148 120h-388v-970h373z" />
<glyph unicode="C" horiz-adv-x="1390" d="M1290 60q-185 -70 -420 -70q-770 0 -770 745q0 705 770 705q235 0 420 -70v-240q-185 80 -400 80q-515 0 -515 -475q0 -515 515 -515q215 0 400 80v-240z" />
<glyph unicode="D" horiz-adv-x="1495" d="M710 230q445 0 445 524q0 446 -445 446h-295v-970h295zM150 0v1430h560q710 0 710 -676q0 -754 -710 -754h-560z" />
<glyph unicode="E" horiz-adv-x="1238" d="M1129 1430v-228h-716v-360h682v-237h-685v-375h733v-230h-993v1430h979z" />
<glyph unicode="F" horiz-adv-x="1164" d="M1089 1430v-228h-676v-360h642v-237h-645v-605h-260v1430h939z" />
<glyph unicode="G" horiz-adv-x="1390" d="M1290 66q-173 -76 -433 -76q-757 0 -757 745q0 705 770 705q235 0 420 -70v-240q-185 80 -400 80q-515 0 -515 -475q0 -515 486 -515q72 0 164 24v416h265v-594z" />
<glyph unicode="H" horiz-adv-x="1535" d="M150 0v1430h265v-590h705v590h265v-1430h-265v610h-705v-610h-265z" />
<glyph unicode="I" d="M415 1430v-1430h-265v1430h265z" />
<glyph unicode="J" horiz-adv-x="740" d="M590 1430v-1018q0 -412 -565 -412v230q300 0 300 182v1018h265z" />
<glyph unicode="K" horiz-adv-x="1435" d="M415 1430v-1430h-265v1430h265zM1421 1430l-610 -667l674 -763h-367l-553 668v172l532 590h324z" />
<glyph unicode="L" horiz-adv-x="1083" d="M415 1430v-1200h568v-230h-833v1430h265z" />
<glyph unicode="M" horiz-adv-x="1800" d="M150 0v1430h275l485 -1085l475 1085h265v-1430h-245v996l-388 -996h-226l-396 996v-996h-245z" />
<glyph unicode="N" horiz-adv-x="1575" d="M150 0v1430h265l755 -1042v1042h255v-1430h-265l-755 1064v-1064h-255z" />
<glyph unicode="O" horiz-adv-x="1625" d="M818 220q432 0 432 499q0 491 -432 491q-443 0 -443 -491q0 -499 443 -499zM100 713q0 727 718 727q707 0 707 -727q0 -723 -707 -723q-686 0 -718 723z" />
<glyph unicode="P" horiz-adv-x="1253" d="M150 0v1430h640q438 0 438 -403q0 -437 -599 -529l-38 236q360 65 360 285q0 178 -178 178h-358v-1197h-265z" />
<glyph unicode="Q" horiz-adv-x="1625" d="M818 220q432 0 432 499q0 491 -432 491q-443 0 -443 -491q0 -499 443 -499zM100 713q0 727 718 727q707 0 707 -727q0 -598 -445 -706l232 -270l-209 -159l-325 412q-646 0 -678 723z" />
<glyph unicode="R" horiz-adv-x="1325" d="M150 2v1428h650q438 0 438 -383q0 -259 -341 -429l453 -618h-334l-435 623v121q380 65 380 295q0 158 -178 158h-363v-1195h-270z" />
<glyph unicode="S" horiz-adv-x="1280" d="M125 60v240q215 -80 486 -80q329 0 329 220q0 160 -202 160h-224q-439 0 -439 400q0 440 625 440q240 0 455 -70v-240q-215 80 -455 80q-360 0 -360 -210q0 -160 174 -160h224q467 0 467 -400q0 -450 -594 -450q-271 0 -486 70z" />
<glyph unicode="T" horiz-adv-x="1085" d="M1085 1430v-230h-410v-1200h-265v1200h-410v230h1085z" />
<glyph unicode="U" horiz-adv-x="1530" d="M150 562v868h265v-868q0 -342 350 -342t350 342v868h265v-868q0 -572 -615 -572t-615 572z" />
<glyph unicode="V" horiz-adv-x="1512" d="M1512 1430l-627 -1430h-285l-600 1430h315l443 -1095l442 1095h312z" />
<glyph unicode="W" horiz-adv-x="1890" d="M35 1430h269l153 -1027l372 1027h255l348 -987l162 987h261l-269 -1430h-252l-393 1122l-422 -1122h-249z" />
<glyph unicode="X" horiz-adv-x="1502" d="M588 715l-563 715h335l395 -522l395 522h335l-562 -715l562 -715h-335l-395 522l-395 -522h-335z" />
<glyph unicode="Y" horiz-adv-x="1300" d="M25 1430h285l402 -689l378 689h275l-526 -930v-500h-265v500z" />
<glyph unicode="Z" horiz-adv-x="1250" d="M1185 1430v-230l-761 -970h761v-230h-1060v230l794 970h-774v230h1040z" />
<glyph unicode="[" horiz-adv-x="680" d="M630 1430v-210h-265v-1390h265v-210h-530v1810h530z" />
<glyph unicode="\" horiz-adv-x="1060" d="M25 1430h285l725 -1430h-285z" />
<glyph unicode="]" horiz-adv-x="680" d="M580 1430v-1810h-530v210h265v1390h-265v210h530z" />
<glyph unicode="^" horiz-adv-x="1050" d="M450 1430h150l400 -730h-230l-249 473l-241 -473h-230z" />
<glyph unicode="_" horiz-adv-x="1050" d="M1025 0v-210h-1000v210h1000z" />
<glyph unicode="`" horiz-adv-x="663" d="M563 1171h-224l-239 259h319z" />
<glyph unicode="a" horiz-adv-x="1135" d="M75 327q0 313 456 313q107 0 214 -20v79q0 141 -203 141q-172 0 -382 -50v210q210 50 382 50q468 0 468 -346v-704h-154l-94 94q-137 -94 -302 -94q-385 0 -385 327zM531 460q-191 0 -191 -130q0 -140 160 -140q132 0 245 82v168q-100 20 -214 20z" />
<glyph unicode="b" horiz-adv-x="1178" d="M390 243q91 -29 211 -29q240 0 240 339q0 277 -207 277q-134 0 -244 -54v-533zM125 1430h265v-460q119 80 265 80q448 0 448 -504q0 -546 -513 -546q-216 0 -465 43v1387z" />
<glyph unicode="c" horiz-adv-x="950" d="M900 30q-130 -30 -270 -30q-560 0 -560 545q0 505 560 505q140 0 270 -30v-210q-130 30 -250 30q-315 0 -315 -295q0 -335 315 -335q120 0 250 30v-210z" />
<glyph unicode="d" horiz-adv-x="1180" d="M790 776q-82 54 -206 54q-247 0 -247 -277q0 -329 257 -329q104 0 196 29v523zM1055 63q-241 -63 -471 -63q-509 0 -509 546q0 504 498 504q106 0 217 -50v430h265v-1367z" />
<glyph unicode="e" horiz-adv-x="1120" d="M568 1050q478 0 478 -488q0 -65 -9 -130h-697q0 -222 326 -222q159 0 318 30v-210q-139 -30 -338 -30q-571 0 -571 537q0 513 493 513zM340 616h448v8q0 218 -220 218q-210 0 -228 -226z" />
<glyph unicode="f" horiz-adv-x="671" d="M125 0v1050q0 432 472 432q129 0 234 -40v-210q-99 40 -215 40q-226 0 -226 -222h315v-210h-315v-840h-265z" />
<glyph unicode="g" horiz-adv-x="1187" d="M797 812q-65 24 -185 24q-275 0 -275 -303q0 -293 237 -293q114 0 223 54v518zM1062 80q0 -460 -553 -460q-194 0 -344 50v210q153 -50 346 -50q286 0 286 240q-118 -50 -254 -50q-468 0 -468 511q0 519 545 519q183 0 442 -43v-927z" />
<glyph unicode="h" horiz-adv-x="1205" d="M125 0v1430h265v-514q124 134 317 134q373 0 373 -388v-662h-265v662q0 174 -173 174q-129 0 -252 -103v-733h-265z" />
<glyph unicode="i" horiz-adv-x="515" d="M390 1430v-210h-265v210h265zM390 1050v-1050h-265v1050h265z" />
<glyph unicode="j" horiz-adv-x="515" d="M390 1430v-210h-265v210h265zM390 1050v-970q0 -318 -182 -518l-208 145q125 135 125 373v970h265z" />
<glyph unicode="k" horiz-adv-x="1206" d="M125 0v1430h265v-462q163 82 343 82q402 0 402 -303q0 -220 -280 -344l326 -403h-324l-274 375v123q287 61 287 200q0 142 -190 142q-133 0 -290 -84v-756h-265z" />
<glyph unicode="l" horiz-adv-x="515" d="M390 1430v-1430h-265v1430h265z" />
<glyph unicode="m" horiz-adv-x="1795" d="M125 0v1050h205l31 -152q141 152 339 152t271 -144q161 144 337 144q362 0 362 -399v-651h-265v661q0 175 -158 175q-118 0 -227 -106v-730h-265v658q0 178 -146 178q-116 0 -219 -106v-730h-265z" />
<glyph unicode="n" horiz-adv-x="1205" d="M125 0v1050h205l33 -154q151 154 344 154q373 0 373 -388v-662h-265v662q0 174 -173 174q-129 0 -252 -103v-733h-265z" />
<glyph unicode="o" horiz-adv-x="1190" d="M595 200q255 0 255 329q0 321 -255 321t-255 -321q0 -329 255 -329zM75 525q0 528 520 528t520 -528q0 -527 -520 -527q-518 0 -520 527z" />
<glyph unicode="p" horiz-adv-x="1177" d="M390 274q99 -54 213 -54q237 0 237 333q0 283 -262 283q-113 0 -188 -14v-548zM125 1007q209 43 442 43q535 0 535 -499q0 -551 -498 -551q-106 0 -214 50v-430h-265v1387z" />
<glyph unicode="q" horiz-adv-x="1187" d="M797 812q-95 24 -175 24q-285 0 -285 -303q0 -313 247 -313q124 0 213 54v538zM1062 -380h-265v430q-108 -50 -244 -50q-478 0 -478 531q0 519 545 519q203 0 442 -43v-1387z" />
<glyph unicode="r" horiz-adv-x="680" d="M125 0v1050h205l33 -134q138 134 292 134v-214q-148 0 -265 -123v-713h-265z" />
<glyph unicode="s" horiz-adv-x="1025" d="M125 50v220q175 -70 404 -70q171 0 171 110q0 105 -115 105h-190q-320 0 -320 315q0 330 467 330q198 0 373 -60v-220q-175 70 -380 70q-215 0 -215 -110q0 -105 125 -105h170q350 0 350 -315q0 -330 -446 -330q-219 0 -394 60z" />
<glyph unicode="t" horiz-adv-x="665" d="M110 1220h196l40 -170h264v-210h-235v-483q0 -147 127 -147h108v-210h-236q-264 0 -264 283v937z" />
<glyph unicode="u" horiz-adv-x="1195" d="M1070 1050v-1050h-207l-32 134q-181 -134 -384 -134q-322 0 -322 381v669h265v-662q0 -174 152 -174q129 0 263 103v733h265z" />
<glyph unicode="v" horiz-adv-x="1080" d="M0 1050h280l255 -734l265 734h280l-427 -1050h-252z" />
<glyph unicode="w" horiz-adv-x="1599" d="M35 1050h267l136 -731l243 731h227l262 -731l118 731h276l-274 -1050h-249l-247 745l-250 -745h-253z" />
<glyph unicode="x" horiz-adv-x="1080" d="M393 525l-393 525h295l245 -328l245 328h295l-392 -525l392 -525h-295l-245 328l-245 -328h-295z" />
<glyph unicode="y" horiz-adv-x="1081" d="M0 1050h281l265 -756l259 756h276l-436 -1081q-116 -286 -371 -407l-128 181q176 77 256 251z" />
<glyph unicode="z" horiz-adv-x="990" d="M120 1050h810v-210l-537 -640h517v-200h-810v200l545 640h-525v210z" />
<glyph unicode="{" horiz-adv-x="755" d="M705 1430q-130 -176 -130 -478q0 -352 -250 -427q250 -75 250 -427q0 -302 130 -478h-265q-130 176 -130 478q0 312 -210 312v230q210 0 210 312q0 302 130 478h265z" />
<glyph unicode="|" d="M415 1430v-1810h-265v1810h265z" />
<glyph unicode="}" horiz-adv-x="755" d="M315 1430q130 -176 130 -478q0 -312 210 -312v-230q-210 0 -210 -312q0 -302 -130 -478h-265q130 176 130 478q0 352 170 427q-170 75 -170 427q0 302 -130 478h265z" />
<glyph unicode="~" horiz-adv-x="950" d="M100 610q58 61 162 61q86 0 203 -41q117 -40 207 -40q109 0 178 60v-210q-58 -60 -162 -60q-86 0 -203 40q-117 41 -207 41q-109 0 -178 -61v210z" />
<glyph unicode="&#xa1;" d="M150 -380v1060h265v-1060h-265zM150 805v245h265v-245h-265z" />
<glyph unicode="&#xa2;" horiz-adv-x="980" d="M490 1230v200h255v-193q99 -7 185 -27v-210q-130 30 -270 30q-335 0 -335 -295q0 -335 335 -335q140 0 270 30v-210q-86 -20 -185 -27v-193h-255v201q-430 65 -430 534q0 435 430 495z" />
<glyph unicode="&#xa3;" horiz-adv-x="1217" d="M100 182q186 75 186 231q0 117 -77 291t-77 323q0 413 558 413q270 0 427 -100v-240q-158 130 -434 130q-274 0 -274 -201q0 -144 35 -199h386v-210h-314q39 -104 39 -204q0 -137 -64 -178q22 4 49 4q84 0 213 -43q49 -17 101 -17q125 0 263 98v-230q-120 -84 -284 -84 q-94 0 -201 28q-129 32 -246 32q-153 0 -286 -56v212z" />
<glyph unicode="&#xa4;" horiz-adv-x="1139" d="M216 756l-116 120l109 112l125 -121q108 68 242 68q124 0 225 -68l128 121l110 -112l-118 -120q58 -83 58 -231q0 -139 -68 -232l128 -120l-110 -112l-128 123q-108 -60 -233 -60q-124 0 -243 60l-116 -123l-109 112l116 120q-57 103 -57 232q0 137 57 231zM322 529 q0 -246 245 -246t245 246q0 244 -245 244t-245 -244z" />
<glyph unicode="&#xa5;" horiz-adv-x="1250" d="M50 1430h275l292 -510l298 510h285l-413 -660h283v-210h-326v-111h326v-210h-326v-239h-265v239h-319v210h319v111h-319v210h277z" />
<glyph unicode="&#xa6;" d="M415 350v-730h-265v730h265zM414 1430v-730h-264v730h264z" />
<glyph unicode="&#xa7;" horiz-adv-x="1090" d="M150 40v220q175 -60 364 -60q211 0 211 90q0 100 -155 100h-70q-400 0 -400 310q0 158 131 216q-131 60 -131 224q0 300 467 300q198 0 373 -50v-220q-175 60 -373 60q-222 0 -222 -90q0 -100 155 -100h70q420 0 420 -307q0 -150 -111 -222q111 -54 111 -221 q0 -300 -476 -300q-189 0 -364 50zM500 598h70q155 0 155 106q0 127 -155 127h-70q-155 0 -155 -114q0 -119 155 -119z" />
<glyph unicode="&#xa8;" horiz-adv-x="755" d="M655 1430v-190h-215v190h215zM315 1430v-190h-215v190h215z" />
<glyph unicode="&#xa9;" horiz-adv-x="1785" d="M878 80q652 0 652 639q0 631 -632 631q-643 0 -643 -631q0 -639 623 -639zM150 723q0 717 748 717q737 0 737 -717q0 -733 -737 -733q-748 0 -748 733zM1183 336q-125 -51 -290 -51q-416 0 -416 443q0 416 416 416q165 0 290 -51v-98q-125 58 -276 58q-325 0 -325 -325 q0 -352 325 -352q151 0 276 58v-98z" />
<glyph unicode="&#xaa;" horiz-adv-x="642" d="M100 1069q0 161 213 161q79 0 127 -10v50q0 66 -132 66q-80 0 -166 -26v96q86 24 166 24q234 0 234 -168v-356h-56l-38 36q-58 -36 -150 -36q-198 0 -198 163zM313 1136q-111 0 -111 -66q0 -70 96 -70t142 42v84q-45 10 -127 10z" />
<glyph unicode="&#xab;" horiz-adv-x="1079" d="M499 525l258 375h272l-258 -375l258 -375h-272zM50 525l258 375h272l-258 -375l258 -375h-272z" />
<glyph unicode="&#xac;" horiz-adv-x="1085" d="M100 1050h885v-400h-210v190h-675v210z" />
<glyph unicode="&#xad;" horiz-adv-x="700" d="M600 630v-210h-500v210h500z" />
<glyph unicode="&#xae;" horiz-adv-x="1163" d="M404 756v536h229q153 0 153 -128q0 -105 -150 -155l184 -253h-91l-171 241v45q154 25 154 119q0 74 -86 74h-153v-479h-69zM580 664q360 0 360 361q0 369 -360 369q-357 0 -357 -369q0 -361 357 -361zM150 1023q0 427 430 427q433 0 433 -427q0 -415 -433 -415 q-418 0 -430 415z" />
<glyph unicode="&#xaf;" horiz-adv-x="700" d="M600 1430v-210h-500v210h500z" />
<glyph unicode="&#xb0;" horiz-adv-x="872" d="M438 965q144 0 144 147q0 144 -144 144q-148 0 -148 -144q0 -147 148 -147zM100 1110q0 320 338 320q334 0 334 -320q0 -319 -334 -319q-338 0 -338 319z" />
<glyph unicode="&#xb1;" horiz-adv-x="950" d="M370 780v270h210v-270h270v-210h-270v-270h-210v270h-270v210h270zM850 210v-210h-750v210h750z" />
<glyph unicode="&#xb2;" horiz-adv-x="590" d="M50 710v175q297 173 297 305q0 65 -90 65t-187 -55v180q97 50 187 50q283 0 283 -240q0 -155 -247 -305h247v-175h-490z" />
<glyph unicode="&#xb3;" horiz-adv-x="578" d="M50 1400q100 30 200 30q278 0 278 -214q0 -98 -94 -143q94 -43 94 -143q0 -224 -278 -224q-100 0 -200 30v180q100 -36 200 -36q86 0 86 50q0 66 -46 66h-164v154h162q48 0 48 66q0 40 -86 40q-100 0 -200 -36v180z" />
<glyph unicode="&#xb4;" horiz-adv-x="663" d="M244 1430h319l-239 -259h-224z" />
<glyph unicode="&#xb5;" horiz-adv-x="1235" d="M1110 1050v-1050h-207l-32 134q-151 -134 -294 -134q-140 0 -187 60v-440h-265v1430h265v-602q0 -234 192 -234q159 0 263 133v703h265z" />
<glyph unicode="&#xb6;" horiz-adv-x="953" d="M443 -434v972q-443 0 -443 448q0 444 443 444h510v-90h-150v-1774h-100v1774h-160v-1774h-100z" />
<glyph unicode="&#xb7;" horiz-adv-x="450" d="M100 525q0 125 125 125t125 -125t-125 -125t-125 125z" />
<glyph unicode="&#xb8;" horiz-adv-x="687" d="M100 -244q108 -50 216 -50t108 55q0 44 -83 44h-183l131 270h165l-81 -152q214 0 214 -162q0 -183 -271 -183q-108 0 -216 50v128z" />
<glyph unicode="&#xb9;" horiz-adv-x="328" d="M126 710v511h-76v95l268 110v-716h-192z" />
<glyph unicode="&#xba;" horiz-adv-x="700" d="M350 1000q148 0 148 170q0 166 -148 166q-147 0 -147 -166q0 -170 147 -170zM100 1168q0 262 250 262t250 -262t-250 -262q-248 0 -250 262z" />
<glyph unicode="&#xbb;" horiz-adv-x="1079" d="M322 150h-272l258 375l-258 375h272l258 -375zM771 150h-272l258 375l-258 375h272l258 -375z" />
<glyph unicode="&#xbc;" horiz-adv-x="1449" d="M345 0h-245l825 1430h245zM872 690q100 30 200 30q277 0 277 -214q0 -98 -94 -143q94 -43 94 -143q0 -224 -277 -224q-100 0 -200 30v180q100 -36 200 -36q84 0 84 50q0 66 -46 66h-164v154h163q47 0 47 66q0 40 -84 40q-100 0 -200 -36v180zM176 710v511h-76v95l268 110 v-716h-192z" />
<glyph unicode="&#xbd;" horiz-adv-x="1442" d="M345 0h-245l825 1430h245zM852 0v175q298 173 298 305q0 65 -90 65t-188 -55v180q98 50 188 50q282 0 282 -240q0 -155 -248 -305h248v-175h-490zM176 710v511h-76v95l268 110v-716h-192z" />
<glyph unicode="&#xbe;" horiz-adv-x="1490" d="M436 0h-245l825 1430h245zM1316 0h-182v150h-352v174l218 390h192l-213 -390h155v224h182v-224l74 -38v-136h-74v-150zM100 1400q100 30 200 30q277 0 277 -214q0 -98 -94 -143q94 -43 94 -143q0 -224 -277 -224q-100 0 -200 30v180q100 -36 200 -36q84 0 84 50 q0 66 -46 66h-164v154h163q47 0 47 66q0 40 -84 40q-100 0 -200 -36v180z" />
<glyph unicode="&#xbf;" horiz-adv-x="1115" d="M600 805v245h265v-245h-265zM1015 -330q-210 -50 -400 -50q-515 0 -515 390q0 440 500 440v230h265v-440h-265q-255 0 -255 -230q0 -180 270 -180q190 0 400 50v-210z" />
<glyph unicode="&#xc0;" horiz-adv-x="1562" d="M297 0h-272l607 1430h285l620 -1430h-285l-163 390h-475l91 230h288l-225 537zM935 1551h-224l-239 259h319z" />
<glyph unicode="&#xc1;" horiz-adv-x="1562" d="M297 0h-272l607 1430h285l620 -1430h-285l-163 390h-475l91 230h288l-225 537zM771 1810h319l-239 -259h-224z" />
<glyph unicode="&#xc2;" horiz-adv-x="1562" d="M297 0h-272l607 1430h285l620 -1430h-285l-163 390h-475l91 230h288l-225 537zM706 1810h150l175 -260h-180l-70 130l-70 -130h-180z" />
<glyph unicode="&#xc3;" horiz-adv-x="1562" d="M297 0h-272l607 1430h285l620 -1430h-285l-163 390h-475l91 230h288l-225 537zM531 1764q60 46 130 46q52 0 110 -26t114 -26q75 0 146 46v-210q-60 -46 -130 -46q-52 0 -110 26t-114 26q-75 0 -146 -46v210z" />
<glyph unicode="&#xc4;" horiz-adv-x="1562" d="M297 0h-272l607 1430h285l620 -1430h-285l-163 390h-475l91 230h288l-225 537zM1059 1810v-190h-215v190h215zM719 1810v-190h-215v190h215z" />
<glyph unicode="&#xc5;" horiz-adv-x="1562" d="M776 1474q134 0 134 137q0 134 -134 134q-138 0 -138 -134q0 -137 138 -137zM297 0h-272l607 1430h4q-88 49 -88 179q0 210 228 210q224 0 224 -210q0 -130 -86 -179h3l620 -1430h-285l-163 390h-475l91 230h288l-225 537z" />
<glyph unicode="&#xc6;" horiz-adv-x="1925" d="M812 600l68 -210h-419l-154 -390h-282l607 1430h1148v-230h-788l160 -360h593v-230h-494l166 -380h383v-230h-578l-460 1144l-220 -544h270z" />
<glyph unicode="&#xc7;" horiz-adv-x="1390" d="M720 -2q-620 69 -620 737q0 705 770 705q235 0 420 -70v-240q-185 80 -400 80q-515 0 -515 -475q0 -515 515 -515q215 0 400 80v-240q-182 -69 -413 -70l-36 -67q214 0 214 -162q0 -183 -271 -183q-108 0 -216 50v128q108 -50 216 -50t108 55q0 44 -83 44h-183z" />
<glyph unicode="&#xc8;" horiz-adv-x="1238" d="M1129 1430v-228h-716v-360h682v-237h-685v-375h733v-230h-993v1430h979zM781 1551h-224l-239 259h319z" />
<glyph unicode="&#xc9;" horiz-adv-x="1238" d="M1129 1430v-228h-716v-360h682v-237h-685v-375h733v-230h-993v1430h979zM616 1810h319l-239 -259h-224z" />
<glyph unicode="&#xca;" horiz-adv-x="1238" d="M1129 1430v-228h-716v-360h682v-237h-685v-375h733v-230h-993v1430h979zM552 1810h150l175 -260h-180l-70 130l-70 -130h-180z" />
<glyph unicode="&#xcb;" horiz-adv-x="1238" d="M1129 1430v-228h-716v-360h682v-237h-685v-375h733v-230h-993v1430h979zM904 1810v-190h-215v190h215zM564 1810v-190h-215v190h215z" />
<glyph unicode="&#xcc;" d="M415 1430v-1430h-265v1430h265zM437 1551h-224l-239 259h319z" />
<glyph unicode="&#xcd;" d="M415 1430v-1430h-265v1430h265zM272 1810h319l-239 -259h-224z" />
<glyph unicode="&#xce;" d="M416 1430v-1430h-265v1430h265zM208 1810h150l175 -260h-180l-70 130l-70 -130h-180z" />
<glyph unicode="&#xcf;" d="M415 1430v-1430h-265v1430h265zM560 1810v-190h-215v190h215zM220 1810v-190h-215v190h215z" />
<glyph unicode="&#xd0;" horiz-adv-x="1455" d="M150 840v590h520q710 0 710 -676q0 -754 -710 -754h-520v610h-200v230h200zM415 840h285v-230h-285v-380h255q445 0 445 524q0 446 -445 446h-255v-360z" />
<glyph unicode="&#xd1;" horiz-adv-x="1615" d="M150 0v1430h265l755 -1042v1042h255v-1430h-265l-755 1064v-1064h-255zM558 1764q60 46 130 46q52 0 110 -26t114 -26q75 0 146 46v-210q-60 -46 -130 -46q-52 0 -110 26t-114 26q-75 0 -146 -46v210z" />
<glyph unicode="&#xd2;" horiz-adv-x="1625" d="M818 220q432 0 432 499q0 491 -432 491q-443 0 -443 -491q0 -499 443 -499zM100 713q0 727 718 727q707 0 707 -727q0 -723 -707 -723q-686 0 -718 723zM967 1551h-224l-239 259h319z" />
<glyph unicode="&#xd3;" horiz-adv-x="1625" d="M818 220q432 0 432 499q0 491 -432 491q-443 0 -443 -491q0 -499 443 -499zM100 713q0 727 718 727q707 0 707 -727q0 -723 -707 -723q-686 0 -718 723zM802 1810h319l-239 -259h-224z" />
<glyph unicode="&#xd4;" horiz-adv-x="1625" d="M818 220q432 0 432 499q0 491 -432 491q-443 0 -443 -491q0 -499 443 -499zM100 713q0 727 718 727q707 0 707 -727q0 -723 -707 -723q-686 0 -718 723zM738 1810h150l175 -260h-180l-70 130l-70 -130h-180z" />
<glyph unicode="&#xd5;" horiz-adv-x="1625" d="M818 220q432 0 432 499q0 491 -432 491q-443 0 -443 -491q0 -499 443 -499zM100 713q0 727 718 727q707 0 707 -727q0 -723 -707 -723q-686 0 -718 723zM563 1764q60 46 130 46q52 0 110 -26t114 -26q75 0 146 46v-210q-60 -46 -130 -46q-52 0 -110 26t-114 26 q-75 0 -146 -46v210z" />
<glyph unicode="&#xd6;" horiz-adv-x="1625" d="M818 220q432 0 432 499q0 491 -432 491q-443 0 -443 -491q0 -499 443 -499zM100 713q0 727 718 727q707 0 707 -727q0 -723 -707 -723q-686 0 -718 723zM1090 1810v-190h-215v190h215zM750 1810v-190h-215v190h215z" />
<glyph unicode="&#xd7;" horiz-adv-x="879" d="M291 525l-191 191l148 148l191 -191l191 191l148 -148l-191 -191l191 -191l-148 -148l-191 191l-191 -191l-148 148z" />
<glyph unicode="&#xd8;" horiz-adv-x="1625" d="M595 264q92 -44 223 -44q432 0 432 499q0 198 -70 316zM444 404l581 768q-86 38 -207 38q-443 0 -443 -491q0 -196 69 -315zM444 65l-49 -65h-257l142 187q-165 181 -180 526q0 727 718 727q212 0 361 -66l42 56h258l-130 -172q176 -182 176 -545q0 -723 -707 -723 q-221 0 -374 75z" />
<glyph unicode="&#xd9;" horiz-adv-x="1530" d="M150 562v868h265v-868q0 -342 350 -342t350 342v868h265v-868q0 -572 -615 -572t-615 572zM919 1551h-224l-239 259h319z" />
<glyph unicode="&#xda;" horiz-adv-x="1530" d="M150 562v868h265v-868q0 -342 350 -342t350 342v868h265v-868q0 -572 -615 -572t-615 572zM755 1810h319l-239 -259h-224z" />
<glyph unicode="&#xdb;" horiz-adv-x="1530" d="M150 562v868h265v-868q0 -342 350 -342t350 342v868h265v-868q0 -572 -615 -572t-615 572zM690 1810h150l175 -260h-180l-70 130l-70 -130h-180z" />
<glyph unicode="&#xdc;" horiz-adv-x="1530" d="M150 562v868h265v-868q0 -342 350 -342t350 342v868h265v-868q0 -572 -615 -572t-615 572zM1043 1810v-190h-215v190h215zM703 1810v-190h-215v190h215z" />
<glyph unicode="&#xdd;" horiz-adv-x="1300" d="M25 1430h285l402 -689l378 689h275l-526 -930v-500h-265v500zM685 1810h319l-239 -259h-224z" />
<glyph unicode="&#xde;" horiz-adv-x="1278" d="M150 0v1430h274v-308h396q408 0 408 -363q0 -427 -589 -519l-38 236q350 65 350 275q0 138 -148 138h-388v-889h-265z" />
<glyph unicode="&#xdf;" horiz-adv-x="1216" d="M125 0v959q0 468 504 468q470 0 470 -377v-135q-314 -53 -314 -188q0 -71 76 -92l93 -29q212 -63 212 -274q0 -332 -424 -332h-212v210h214q147 0 147 112q0 81 -74 105l-88 28q-189 61 -189 249q0 218 288 346q0 167 -206 167q-232 0 -232 -261v-956h-265z" />
<glyph unicode="&#xe0;" horiz-adv-x="1135" d="M75 327q0 313 456 313q107 0 214 -20v79q0 141 -203 141q-172 0 -382 -50v210q210 50 382 50q468 0 468 -346v-704h-154l-94 94q-137 -94 -302 -94q-385 0 -385 327zM531 460q-191 0 -191 -130q0 -140 160 -140q132 0 245 82v168q-100 20 -214 20zM717 1171h-224 l-239 259h319z" />
<glyph unicode="&#xe1;" horiz-adv-x="1135" d="M75 327q0 313 456 313q107 0 214 -20v79q0 141 -203 141q-172 0 -382 -50v210q210 50 382 50q468 0 468 -346v-704h-154l-94 94q-137 -94 -302 -94q-385 0 -385 327zM531 460q-191 0 -191 -130q0 -140 160 -140q132 0 245 82v168q-100 20 -214 20zM542 1430h319 l-239 -259h-224z" />
<glyph unicode="&#xe2;" horiz-adv-x="1135" d="M75 327q0 313 456 313q107 0 214 -20v79q0 141 -203 141q-172 0 -382 -50v210q210 50 382 50q468 0 468 -346v-704h-154l-94 94q-137 -94 -302 -94q-385 0 -385 327zM531 460q-191 0 -191 -130q0 -140 160 -140q132 0 245 82v168q-100 20 -214 20zM488 1430h150l175 -260 h-180l-70 130l-70 -130h-180z" />
<glyph unicode="&#xe3;" horiz-adv-x="1135" d="M75 327q0 313 456 313q107 0 214 -20v79q0 141 -203 141q-172 0 -382 -50v210q210 50 382 50q468 0 468 -346v-704h-154l-94 94q-137 -94 -302 -94q-385 0 -385 327zM531 460q-191 0 -191 -130q0 -140 160 -140q132 0 245 82v168q-100 20 -214 20zM313 1384q60 46 130 46 q52 0 110 -26t114 -26q75 0 146 46v-210q-60 -46 -130 -46q-52 0 -110 26t-114 26q-75 0 -146 -46v210z" />
<glyph unicode="&#xe4;" horiz-adv-x="1135" d="M75 327q0 313 456 313q107 0 214 -20v79q0 141 -203 141q-172 0 -382 -50v210q210 50 382 50q468 0 468 -346v-704h-154l-94 94q-137 -94 -302 -94q-385 0 -385 327zM531 460q-191 0 -191 -130q0 -140 160 -140q132 0 245 82v168q-100 20 -214 20zM840 1430v-190h-215 v190h215zM500 1430v-190h-215v190h215z" />
<glyph unicode="&#xe5;" horiz-adv-x="1135" d="M75 327q0 313 456 313q107 0 214 -20v79q0 141 -203 141q-172 0 -382 -50v210q210 50 382 50q468 0 468 -346v-704h-154l-94 94q-137 -94 -302 -94q-385 0 -385 327zM531 460q-191 0 -191 -130q0 -140 160 -140q132 0 245 82v168q-100 20 -214 20zM560 1226 q134 0 134 137q0 134 -134 134q-138 0 -138 -134q0 -137 138 -137zM332 1361q0 210 228 210q224 0 224 -210q0 -209 -224 -209q-228 0 -228 209z" />
<glyph unicode="&#xe6;" horiz-adv-x="1745" d="M511 460q-171 0 -171 -130q0 -140 150 -140q152 0 245 82v168q-110 20 -224 20zM1001 616h448q-16 224 -210 224q-220 0 -238 -224zM164 792v205q168 53 334 53q299 0 396 -136q127 136 342 136q456 0 456 -467q0 -75 -12 -151h-677q0 -222 360 -222q148 0 285 29v-209 q-146 -30 -341 -30q-275 0 -418 112q-193 -112 -398 -112q-416 0 -416 329q0 321 437 321q104 0 226 -22q0 212 -242 212q-170 0 -332 -48z" />
<glyph unicode="&#xe7;" horiz-adv-x="950" d="M453 16q-383 79 -383 529q0 505 560 505q140 0 270 -30v-210q-130 30 -250 30q-315 0 -315 -295q0 -335 315 -335q120 0 250 30v-210q-130 -30 -270 -30h-24l-41 -77q214 0 214 -162q0 -183 -271 -183q-108 0 -216 50v128q108 -50 216 -50t108 55q0 44 -83 44h-183z" />
<glyph unicode="&#xe8;" horiz-adv-x="1120" d="M568 1050q478 0 478 -488q0 -65 -9 -130h-697q0 -222 326 -222q159 0 318 30v-210q-139 -30 -338 -30q-571 0 -571 537q0 513 493 513zM340 616h448v8q0 218 -220 218q-210 0 -228 -226zM725 1171h-224l-239 259h319z" />
<glyph unicode="&#xe9;" horiz-adv-x="1120" d="M568 1050q478 0 478 -488q0 -65 -9 -130h-697q0 -222 326 -222q159 0 318 30v-210q-139 -30 -338 -30q-571 0 -571 537q0 513 493 513zM340 616h448v8q0 218 -220 218q-210 0 -228 -226zM560 1430h319l-239 -259h-224z" />
<glyph unicode="&#xea;" horiz-adv-x="1120" d="M568 1050q478 0 478 -488q0 -65 -9 -130h-697q0 -222 326 -222q159 0 318 30v-210q-139 -30 -338 -30q-571 0 -571 537q0 513 493 513zM340 616h448v8q0 218 -220 218q-210 0 -228 -226zM495 1430h150l175 -260h-180l-70 130l-70 -130h-180z" />
<glyph unicode="&#xeb;" horiz-adv-x="1120" d="M568 1050q478 0 478 -488q0 -65 -9 -130h-697q0 -222 326 -222q159 0 318 30v-210q-139 -30 -338 -30q-571 0 -571 537q0 513 493 513zM340 616h448v8q0 218 -220 218q-210 0 -228 -226zM848 1430v-190h-215v190h215zM508 1430v-190h-215v190h215z" />
<glyph unicode="&#xec;" horiz-adv-x="515" d="M390 1050v-1050h-265v1050h265zM412 1171h-224l-239 259h319z" />
<glyph unicode="&#xed;" horiz-adv-x="515" d="M390 1050v-1050h-265v1050h265zM247 1430h319l-239 -259h-224z" />
<glyph unicode="&#xee;" horiz-adv-x="515" d="M391 1050v-1050h-265v1050h265zM183 1430h150l175 -260h-180l-70 130l-70 -130h-180z" />
<glyph unicode="&#xef;" horiz-adv-x="515" d="M390 1050v-1050h-265v1050h265zM535 1430v-190h-215v190h215zM195 1430v-190h-215v190h215z" />
<glyph unicode="&#xf0;" horiz-adv-x="1180" d="M840 646q0 96 -18 154q-90 50 -234 50q-252 0 -252 -310q0 -340 253 -340q251 0 251 446zM885 1268q220 -193 220 -618q0 -660 -517 -660q-513 0 -513 550q0 510 434 510q177 0 286 -90q-62 133 -174 198l-231 -97v119l76 32q-50 8 -105 8h-206v210h208q249 0 414 -88 l210 88v-119z" />
<glyph unicode="&#xf1;" horiz-adv-x="1205" d="M125 0v1050h205l33 -154q151 154 344 154q373 0 373 -388v-662h-265v662q0 174 -173 174q-129 0 -252 -103v-733h-265zM373 1384q60 46 130 46q52 0 110 -26t114 -26q75 0 146 46v-210q-60 -46 -130 -46q-52 0 -110 26t-114 26q-75 0 -146 -46v210z" />
<glyph unicode="&#xf2;" horiz-adv-x="1190" d="M595 200q255 0 255 329q0 321 -255 321t-255 -321q0 -329 255 -329zM75 525q0 528 520 528t520 -528q0 -527 -520 -527q-518 0 -520 527zM749 1171h-224l-239 259h319z" />
<glyph unicode="&#xf3;" horiz-adv-x="1190" d="M595 200q255 0 255 329q0 321 -255 321t-255 -321q0 -329 255 -329zM75 525q0 528 520 528t520 -528q0 -527 -520 -527q-518 0 -520 527zM585 1430h319l-239 -259h-224z" />
<glyph unicode="&#xf4;" horiz-adv-x="1190" d="M595 200q255 0 255 329q0 321 -255 321t-255 -321q0 -329 255 -329zM75 525q0 528 520 528t520 -528q0 -527 -520 -527q-518 0 -520 527zM520 1430h150l175 -260h-180l-70 130l-70 -130h-180z" />
<glyph unicode="&#xf5;" horiz-adv-x="1190" d="M595 200q255 0 255 329q0 321 -255 321t-255 -321q0 -329 255 -329zM75 525q0 528 520 528t520 -528q0 -527 -520 -527q-518 0 -520 527zM345 1384q60 46 130 46q52 0 110 -26t114 -26q75 0 146 46v-210q-60 -46 -130 -46q-52 0 -110 26t-114 26q-75 0 -146 -46v210z" />
<glyph unicode="&#xf6;" horiz-adv-x="1190" d="M595 200q255 0 255 329q0 321 -255 321t-255 -321q0 -329 255 -329zM75 525q0 528 520 528t520 -528q0 -527 -520 -527q-518 0 -520 527zM873 1430v-190h-215v190h215zM533 1430v-190h-215v190h215z" />
<glyph unicode="&#xf7;" horiz-adv-x="985" d="M885 630v-210h-785v210h785zM605 340v-190h-225v190h225zM605 900v-190h-225v190h225z" />
<glyph unicode="&#xf8;" horiz-adv-x="1180" d="M484 219q48 -19 111 -19q265 0 265 329q0 90 -21 155zM348 379l348 456q-44 15 -101 15q-265 0 -265 -321q0 -87 18 -150zM342 32l-25 -32h-257l115 151q-109 132 -110 374q0 535 530 535q141 0 244 -38l21 28h258l-108 -142q115 -133 115 -383q0 -534 -530 -534 q-147 0 -253 41z" />
<glyph unicode="&#xf9;" horiz-adv-x="1195" d="M1070 1050v-1050h-207l-32 134q-181 -134 -384 -134q-322 0 -322 381v669h265v-662q0 -174 152 -174q129 0 263 103v733h265zM752 1171h-224l-239 259h319z" />
<glyph unicode="&#xfa;" horiz-adv-x="1195" d="M1070 1050v-1050h-207l-32 134q-181 -134 -384 -134q-322 0 -322 381v669h265v-662q0 -174 152 -174q129 0 263 103v733h265zM587 1430h319l-239 -259h-224z" />
<glyph unicode="&#xfb;" horiz-adv-x="1195" d="M1070 1050v-1050h-207l-32 134q-181 -134 -384 -134q-322 0 -322 381v669h265v-662q0 -174 152 -174q129 0 263 103v733h265zM523 1430h150l175 -260h-180l-70 130l-70 -130h-180z" />
<glyph unicode="&#xfc;" horiz-adv-x="1195" d="M1070 1050v-1050h-207l-32 134q-181 -134 -384 -134q-322 0 -322 381v669h265v-662q0 -174 152 -174q129 0 263 103v733h265zM875 1430v-190h-215v190h215zM535 1430v-190h-215v190h215z" />
<glyph unicode="&#xfd;" horiz-adv-x="1081" d="M0 1050h281l265 -756l259 756h276l-436 -1081q-116 -286 -371 -407l-128 181q176 77 256 251zM530 1430h319l-239 -259h-224z" />
<glyph unicode="&#xfe;" horiz-adv-x="1177" d="M390 1024q87 26 197 26q515 0 515 -509q0 -541 -498 -541q-106 0 -214 50v-430h-265v1810h265v-406zM390 822v-548q99 -54 213 -54q237 0 237 323q0 293 -262 293q-113 0 -188 -14z" />
<glyph unicode="&#xff;" horiz-adv-x="1081" d="M0 1050h281l265 -756l259 756h276l-436 -1081q-116 -286 -371 -407l-128 181q176 77 256 251zM824 1430v-190h-215v190h215zM484 1430v-190h-215v190h215z" />
<glyph unicode="&#x131;" horiz-adv-x="515" d="M390 1050v-1050h-265v1050h265z" />
<glyph unicode="&#x152;" horiz-adv-x="2215" d="M818 230q422 0 422 489q0 481 -422 481q-443 0 -443 -481q0 -489 443 -489zM100 713q0 717 718 717h1257v-230h-700q110 -112 140 -360h525v-230h-525q-21 -242 -131 -380h706v-230h-1272q-686 0 -718 713z" />
<glyph unicode="&#x153;" horiz-adv-x="1859" d="M576 210q255 0 255 319q0 311 -255 311t-255 -311q0 -319 255 -319zM1106 616h428q-6 226 -210 226q-200 0 -218 -226zM60 522q0 528 510 528q264 0 385 -169q118 169 367 169q468 0 468 -494q0 -63 -8 -134h-683q0 -212 362 -212q147 0 279 28v-206q-137 -32 -333 -32 q-322 0 -451 146q-115 -146 -386 -146q-489 0 -510 522z" />
<glyph unicode="&#x178;" horiz-adv-x="1300" d="M25 1430h285l402 -689l378 689h275l-526 -930v-500h-265v500zM973 1789v-190h-216v190h216zM633 1789v-190h-216v190h216z" />
<glyph unicode="&#x2c6;" horiz-adv-x="700" d="M275 1430h150l175 -260h-180l-70 130l-70 -130h-180z" />
<glyph unicode="&#x2da;" horiz-adv-x="652" d="M328 1226q134 0 134 137q0 134 -134 134q-138 0 -138 -134q0 -137 138 -137zM100 1361q0 210 228 210q224 0 224 -210q0 -209 -224 -209q-228 0 -228 209z" />
<glyph unicode="&#x2dc;" horiz-adv-x="700" d="M100 1384q60 46 130 46q52 0 110 -26t114 -26q75 0 146 46v-210q-60 -46 -130 -46q-52 0 -110 26t-114 26q-75 0 -146 -46v210z" />
<glyph unicode="&#x2000;" horiz-adv-x="909" />
<glyph unicode="&#x2001;" horiz-adv-x="1819" />
<glyph unicode="&#x2002;" horiz-adv-x="909" />
<glyph unicode="&#x2003;" horiz-adv-x="1819" />
<glyph unicode="&#x2004;" horiz-adv-x="606" />
<glyph unicode="&#x2005;" horiz-adv-x="454" />
<glyph unicode="&#x2006;" horiz-adv-x="303" />
<glyph unicode="&#x2007;" horiz-adv-x="303" />
<glyph unicode="&#x2008;" horiz-adv-x="227" />
<glyph unicode="&#x2009;" horiz-adv-x="363" />
<glyph unicode="&#x200a;" horiz-adv-x="101" />
<glyph unicode="&#x2010;" horiz-adv-x="700" d="M600 630v-210h-500v210h500z" />
<glyph unicode="&#x2011;" horiz-adv-x="700" d="M600 630v-210h-500v210h500z" />
<glyph unicode="&#x2012;" horiz-adv-x="700" d="M600 630v-210h-500v210h500z" />
<glyph unicode="&#x2013;" horiz-adv-x="1200" d="M1100 630v-210h-1000v210h1000z" />
<glyph unicode="&#x2014;" horiz-adv-x="1700" d="M1600 630v-210h-1500v210h1500z" />
<glyph unicode="&#x2018;" horiz-adv-x="495" d="M445 1430l-150 -435h-245l150 435h245z" />
<glyph unicode="&#x2019;" horiz-adv-x="495" d="M445 1430l-150 -435h-245l150 435h245z" />
<glyph unicode="&#x201a;" horiz-adv-x="435" d="M385 185l-150 -435h-185l150 435h185z" />
<glyph unicode="&#x201c;" horiz-adv-x="925" d="M875 1430l-150 -435h-245l150 435h245zM445 1430l-150 -435h-245l150 435h245z" />
<glyph unicode="&#x201d;" horiz-adv-x="925" d="M875 1430l-150 -435h-245l150 435h245zM445 1430l-150 -435h-245l150 435h245z" />
<glyph unicode="&#x201e;" horiz-adv-x="925" d="M875 185l-150 -435h-245l150 435h245zM445 185l-150 -435h-245l150 435h245z" />
<glyph unicode="&#x2022;" horiz-adv-x="630" d="M100 725q0 215 215 215t215 -215t-215 -215t-215 215z" />
<glyph unicode="&#x2026;" horiz-adv-x="1465" d="M365 245v-245h-265v245h265zM865 245v-245h-265v245h265zM1365 245v-245h-265v245h265z" />
<glyph unicode="&#x202f;" horiz-adv-x="363" />
<glyph unicode="&#x2039;" horiz-adv-x="630" d="M50 525l258 375h272l-258 -375l258 -375h-272z" />
<glyph unicode="&#x203a;" horiz-adv-x="630" d="M322 150h-272l258 375l-258 375h272l258 -375z" />
<glyph unicode="&#x205f;" horiz-adv-x="454" />
<glyph unicode="&#x20ac;" horiz-adv-x="1385" d="M1250 50q-185 -60 -400 -60q-750 0 -750 745q0 705 750 705q215 0 400 -60v-240q-185 70 -380 70q-418 0 -485 -228h673v-210h-693v-70h693v-210h-673q57 -272 485 -272q195 0 380 70v-240z" />
<glyph unicode="&#x2122;" horiz-adv-x="1606" d="M661 1430v-71h-212v-602h-87v602h-212v71h511zM750 757v673h110l248 -561l242 561h106v-673h-78v543l-239 -543h-69l-243 543v-543h-77z" />
<glyph unicode="&#x25fc;" horiz-adv-x="1050" d="M0 1050h1050v-1050h-1050v1050z" />
</font>
</defs>
</svg>
